#!OML:ASF I:\Actors\actors\Patient Classification 2\Patient 1\Session 1\actor1.ASF
:FULLY-SPECIFIED
:DEGREES
634
root -0.826941 18.7941 6.12275 14.57 1.95235 -2.98142
lowerback 9.88505 -0.140522 2.97057
upperback -1.03829 0.227449 0.822429
thorax -6.64099 0.0188748 -0.844495
lowerneck -6.20659 -1.01411 -0.0647947
upperneck 12.4555 -1.17 -1.47172
head 4.74552 -0.664036 -0.511997
rclavicle 6.11884e-016 -3.18055e-015
rhumerus -84.8947 14.5673 -96.9189
rradius 106.514
rwrist 2.05389
rhand 5.02686 -24.3356
rfingers 7.12502
rthumb 30.3956 -51.8506
lclavicle 6.11884e-016 -3.18055e-015
lhumerus -84.4774 -23.091 107.739
lradius 106.154
lwrist 16.172
lhand -15.4919 -24.8831
lfingers 7.12502
lthumb 10.6903 4.82495
rfemur -6.09744 -6.16929 18.1659
rtibia 2.06736e-014
rfoot -13.8812 -10.5566
rtoes -7.56031
lfemur -25.6083 3.45452 -10.045
ltibia 31.8311
lfoot -15.8108 3.04955
ltoes -58.1116
635
root -0.809053 18.7756 6.12654 14.4872 1.83607 -3.66106
lowerback 9.90962 -0.0369562 2.44499
upperback -0.991765 0.289305 0.6384
thorax -6.60353 0.0655103 -0.751704
lowerneck -6.58901 -1.02059 -0.316932
upperneck 13.0578 -1.44409 0.77984
head 5.01291 -0.670828 0.203798
rclavicle 7.55382e-015 -3.37934e-015
rhumerus -85.0268 14.5992 -97.0404
rradius 106.462
rwrist 2.21872
rhand 4.97323 -24.3485
rfingers 7.12502
rthumb 30.3444 -51.8728
lclavicle 7.55382e-015 -3.37934e-015
lhumerus -84.4219 -23.072 107.771
lradius 106.197
lwrist 16.1183
lhand -15.6709 -25.2083
lfingers 7.12502
lthumb 10.5176 4.50859
rfemur -6.08015 -5.93054 18.8005
rtibia 1.90833e-014
rfoot -13.7253 -10.6376
rtoes -7.28125
lfemur -25.3275 3.38666 -9.42145
ltibia 31.6555
lfoot -16.7339 3.68386
ltoes -57.8291
636
root -0.782147 18.7574 6.13701 14.3877 1.56148 -4.37231
lowerback 9.83819 0.0989207 1.95041
upperback -0.912986 0.393406 0.428537
thorax -6.47691 0.132004 -0.709188
lowerneck -7.03546 -1.04524 -0.761843
upperneck 13.7377 -1.7724 3.19915
head 5.327 -0.6882 1.00475
rclavicle 1.88845e-015 9.93923e-015
rhumerus -85.1111 14.6554 -97.1807
rradius 106.403
rwrist 2.32887
rhand 4.83348 -24.3527
rfingers 7.12502
rthumb 30.2111 -51.9015
lclavicle 1.88845e-015 9.93923e-015
lhumerus -84.4218 -23.0693 107.806
lradius 106.271
lwrist 16.1075
lhand -15.9332 -25.4525
lfingers 7.12502
lthumb 10.2646 4.27703
rfemur -6.05221 -5.53864 19.3794
rtibia 1.59028e-015
rfoot -13.5577 -10.7267
rtoes -6.77558
lfemur -24.9395 3.27647 -8.86381
ltibia 31.4488
lfoot -17.8369 4.56696
ltoes -57.6038
637
root -0.758122 18.7424 6.13353 14.0736 1.47215 -5.07207
lowerback 10.2668 0.355139 1.70109
upperback -1.07831 0.68408 -0.047602
thorax -6.88519 0.268986 -1.11843
lowerneck -6.48931 -1.33275 -0.857722
upperneck 14.1037 -2.52599 5.72926
head 5.39677 -0.892863 1.76441
rclavicle 1.11319e-014 8.74653e-015
rhumerus -85.6586 13.7144 -97.5447
rradius 106.432
rwrist 2.44834
rhand 4.73165 -24.6278
rfingers 7.12502
rthumb 30.114 -52.1944
lclavicle 1.11319e-014 8.74653e-015
lhumerus -85.3001 -23.8018 108.044
lradius 106.367
lwrist 16.1237
lhand -16.1114 -25.5995
lfingers 7.12502
lthumb 10.0927 4.13848
rfemur -5.78311 -5.32686 20.0019
rtibia 1.90833e-014
rfoot -13.3578 -10.85
rtoes -6.66579
lfemur -24.4291 3.128 -8.28488
ltibia 31.2698
lfoot -18.9314 5.20275
ltoes -57.6024
638
root -0.730415 18.7331 6.12859 13.8237 1.39941 -5.74855
lowerback 10.6351 0.568074 1.41973
upperback -1.08366 0.911101 -0.430915
thorax -7.09144 0.38044 -1.40547
lowerneck -6.62497 -1.68988 -1.18317
upperneck 14.616 -3.37714 8.23124
head 5.65781 -1.1404 2.5498
rclavicle 6.55989e-015 2.3059e-014
rhumerus -85.8462 13.0377 -97.7359
rradius 106.463
rwrist 2.50454
rhand 4.62507 -24.8898
rfingers 7.12502
rthumb 30.0123 -52.4749
lclavicle 6.55989e-015 2.3059e-014
lhumerus -85.7282 -24.4416 108.177
lradius 106.383
lwrist 15.9908
lhand -16.3279 -25.8117
lfingers 7.12502
lthumb 9.88381 3.93634
rfemur -5.5962 -5.14347 20.6076
rtibia -9.54166e-015
rfoot -13.0727 -11.0184
rtoes -6.73376
lfemur -24.0526 2.75661 -7.67738
ltibia 31.1845
lfoot -19.7548 5.94817
ltoes -57.5246
639
root -0.699763 18.7291 6.12204 13.6435 1.3103 -6.36588
lowerback 10.9338 0.583764 0.858171
upperback -0.933898 0.854332 -0.516295
thorax -7.11031 0.373106 -1.17242
lowerneck -7.32255 -1.94088 -2.05647
upperneck 15.2208 -4.04687 10.6475
head 6.06796 -1.30796 3.42025
rclavicle 2.38542e-015 -1.11319e-014
rhumerus -85.7127 13.3192 -97.7558
rradius 106.413
rwrist 2.50593
rhand 4.56133 -24.9097
rfingers 7.12502
rthumb 29.9515 -52.5057
lclavicle 2.38542e-015 -1.11319e-014
lhumerus -85.4914 -24.2528 108.124
lradius 106.31
lwrist 15.9232
lhand -16.7468 -26.6286
lfingers 7.12502
lthumb 9.47963 3.13815
rfemur -5.494 -4.96491 21.1365
rtibia 1.43125e-014
rfoot -12.7614 -11.1716
rtoes -6.48509
lfemur -23.8242 2.38873 -7.099
ltibia 31.2116
lfoot -20.1626 6.63094
ltoes -57.4007
